<svg xmlns="http://www.w3.org/2000/svg" version="1.1" xmlns:xlink="http://www.w3.org/1999/xlink" width="200" height="120"><svg version="1.2" xmlns="http://www.w3.org/2000/svg" viewBox="0 0 200 120" width="200" height="120">
	<style>
		.s0 { fill: #000000 } 
		.s1 { fill: #441c26 } 
		.s2 { fill: #ffffff } 
	</style>
	<path id="SvgjsPath1132" class="s0" d="m68.5 17.04c-2.75 0.49-8.6 2.07-13 3.52-4.4 1.45-11.99 4.73-16.87 7.29-5.56 2.91-11.08 6.8-14.75 10.4-3.75 3.66-6.28 7.11-6.97 9.5-0.6 2.06-0.94 8.52-0.75 14.34 0.32 9.87 0.54 10.88 3.34 14.88 1.65 2.35 5.92 6.46 9.5 9.13 3.58 2.66 9.2 6.15 12.5 7.75 3.3 1.61 8.92 3.83 12.5 4.93 3.58 1.11 9.99 2.74 14.25 3.62 5.86 1.21 13.66 1.6 32 1.6 22.59 0 24.97-0.18 34.75-2.56 5.78-1.4 13.88-3.91 18-5.57 4.13-1.67 10.62-5.13 14.43-7.7 3.81-2.57 8.2-6.25 9.76-8.17 1.56-1.92 3.5-4.96 4.32-6.75 1-2.19 1.49-6.51 1.49-13.25 0-7.43-0.45-10.96-1.75-13.74-0.96-2.06-4.22-6.15-7.25-9.08-3.9-3.79-8.69-6.91-16.5-10.73-6.05-2.96-14.37-6.37-18.5-7.58-6.83-1.99-10.08-2.21-36.5-2.46-15.95-0.14-31.25 0.14-34 0.63z"></path>
	<path id="SvgjsPath1131" class="s1" d="m71.79 18.01c-2.59 0.43-8.1 1.72-12.25 2.88-4.15 1.16-11.7 4.12-16.79 6.57-5.54 2.67-11.65 6.6-15.25 9.81-3.3 2.94-7.01 7.35-8.24 9.79-1.79 3.56-2.23 6.13-2.23 12.94 0 6.81 0.44 9.38 2.23 12.93 1.23 2.44 4.49 6.42 7.24 8.85 2.75 2.43 7.47 5.93 10.5 7.77 3.02 1.85 9.32 4.76 14 6.48 4.67 1.72 12.77 4 18 5.06 7.57 1.55 13.55 1.93 29.5 1.9 11-0.01 22.92-0.45 26.5-0.97 3.57-0.52 10.55-2.12 15.5-3.55 4.95-1.44 12.82-4.49 17.49-6.79 4.86-2.39 10.84-6.37 14-9.3 3.03-2.82 6.51-7.09 7.74-9.5 1.77-3.5 2.22-6.08 2.23-12.88 0.01-6.82-0.43-9.38-2.22-12.94-1.23-2.44-4.77-6.72-7.86-9.5-3.1-2.78-9.4-6.95-14-9.26-4.61-2.31-11.98-5.37-16.38-6.79-4.4-1.43-10.93-3.01-14.5-3.53-3.58-0.52-16.4-0.9-28.5-0.84-12.1 0.05-24.12 0.44-26.71 0.87z"></path>
	<path id="SvgjsPath1130" class="s2" d="m82.9 58.3q-6.3 0-9.5-3.1-3.2-3.1-3.2-9.7 0-6.5 3.3-9.7 3.4-3.3 9.7-3.3 2.7 0 5 0.6v5.1q-2.3-0.5-4.5-0.5-2.4 0-3.9 0.8-1.6 0.7-2.4 2.4-0.7 1.7-0.7 4.5 0 2.9 0.7 4.6 0.8 1.7 2.3 2.4 1.5 0.7 4 0.7 2 0 4.5-0.7v5.1q-1 0.4-2.5 0.6-1.4 0.2-2.8 0.2zm24.6-0.3h-16.6v-25.2h6.2v19.9h10.4zm23 0h-6.7l-5.7-8.9q-0.5 0-1.4 0-0.5 0-0.7 0v8.9h-6.1v-24.7q3.8-0.8 7.7-0.8 5.5 0 8.2 2 2.7 2.1 2.7 6.3 0 2.6-1.2 4.4-1.1 1.9-3.3 2.9zm-14.5-20.6v6.8q1.2 0.2 2.2 0.2 2.3 0 3.4-0.8 1-0.9 1-2.8 0-1.9-1-2.8-1.1-0.8-3.2-0.8-1.2 0-2.4 0.2z"></path>
	<path id="SvgjsPath1129" class="s2" d="m54.7 78h-7.8v-11.8h2.9v9.3h4.9zm4.1-8.9q1.5 0 2.3 0.3 0.9 0.4 1.3 1.2 0.4 0.8 0.4 2.2v5.2h-2.3l-0.2-0.9h-0.2q-0.3 0.6-0.8 0.8-0.6 0.3-1.3 0.3-0.8 0-1.4-0.4-0.6-0.3-0.9-0.9-0.3-0.6-0.3-1.3 0-1.3 0.8-2 0.9-0.8 2.7-0.9h1.1q0-0.6-0.2-0.8-0.1-0.3-0.5-0.5-0.4-0.1-1-0.1-0.5 0-1.1 0.1-0.6 0.1-1.1 0.2v-2.2q0.6-0.2 1.3-0.2 0.8-0.1 1.4-0.1zm0.3 7q0.5 0 0.9-0.3v-1.5h-0.7q-1.1 0.1-1.1 1 0 0.4 0.2 0.6 0.2 0.2 0.7 0.2zm9 2q-0.8 0-1.7-0.1-0.9-0.1-1.6-0.4v-12.5h2.9v5h0.1q0.3-0.5 0.8-0.8 0.5-0.2 1.2-0.2 0.9 0 1.6 0.4 0.7 0.5 1.1 1.5 0.4 1 0.4 2.4 0 2.4-1.1 3.6-1.2 1.1-3.7 1.1zm0.2-2.1q0.6 0 1-0.2 0.4-0.3 0.5-0.8 0.2-0.5 0.2-1.3 0-0.9-0.1-1.4-0.2-0.5-0.5-0.6-0.3-0.2-0.8-0.2-0.3 0-0.5 0-0.3 0.1-0.4 0.2v4.2q0.3 0.1 0.6 0.1zm9.3 2.2q-2 0-3.1-1.2-1.1-1.1-1.1-3.4 0-2.2 1.1-3.4 1.1-1.1 3.1-1.1 2 0 3 1.1 1.1 1.2 1.1 3.4 0 2.3-1.1 3.4-1.1 1.2-3 1.2zm0-2.2q0.4 0 0.6-0.2 0.3-0.2 0.4-0.7 0.2-0.5 0.2-1.5 0-0.9-0.2-1.4-0.1-0.6-0.4-0.8-0.2-0.2-0.6-0.2-0.4 0-0.7 0.2-0.3 0.2-0.4 0.7-0.2 0.6-0.2 1.5 0 1 0.2 1.5 0.1 0.5 0.4 0.7 0.2 0.2 0.7 0.2zm5.2 2v-8.8h2.3l0.3 1.2h0.1q0.3-0.7 0.8-1 0.6-0.3 1.3-0.3 0.3 0 0.7 0v2.7q-0.3-0.1-0.9-0.1-0.5 0-1 0.2-0.5 0.2-0.7 0.5v5.6zm9-8.9q1.4 0 2.3 0.3 0.9 0.4 1.3 1.2 0.4 0.8 0.4 2.2v5.2h-2.4l-0.2-0.9h-0.1q-0.3 0.6-0.8 0.8-0.6 0.3-1.3 0.3-0.8 0-1.4-0.4-0.6-0.3-0.9-0.9-0.4-0.6-0.4-1.3 0-1.3 0.9-2 0.9-0.8 2.7-0.9h1.1q0-0.6-0.2-0.8-0.1-0.3-0.5-0.5-0.4-0.1-1-0.1-0.6 0-1.1 0.1-0.6 0.1-1.2 0.2v-2.2q0.7-0.2 1.4-0.2 0.7-0.1 1.4-0.1zm0.2 7q0.6 0 1-0.3v-1.5h-0.7q-1.1 0.1-1.1 1 0 0.4 0.2 0.6 0.2 0.2 0.6 0.2zm10.4-0.4q0.3 0 0.9 0v2.3q-0.4 0-0.8 0.1-0.4 0-0.9 0-1.6 0-2.4-0.8-0.9-0.8-0.9-2.6v-3.2h-1.2v-2.3h1.2l0.5-3.1h2.4v3.1h2v2.3h-2v2.8q0 0.6 0.1 0.9 0.1 0.3 0.4 0.4 0.3 0.1 0.7 0.1zm4.2 2.3h-2.8v-8.8h2.8zm-1.4-9.8q-0.9 0-1.3-0.4-0.5-0.4-0.5-1.1 0-0.8 0.5-1.2 0.4-0.4 1.3-0.4 0.9 0 1.3 0.4 0.5 0.4 0.5 1.2 0 0.7-0.5 1.1-0.4 0.4-1.3 0.4zm7.3 10q-1.9 0-3-1.1-1.1-1.2-1.1-3.4 0-2.3 1.1-3.5 1-1.1 3-1.1 2 0 3.1 1.1 1.1 1.2 1.1 3.4 0 2.3-1.1 3.4-1.1 1.2-3.1 1.2zm0-2.2q0.5 0 0.7-0.2 0.3-0.2 0.4-0.7 0.2-0.5 0.2-1.4 0-1-0.2-1.5-0.1-0.5-0.4-0.8-0.2-0.2-0.7-0.2-0.4 0-0.6 0.2-0.3 0.2-0.4 0.8-0.2 0.5-0.2 1.4 0 1 0.2 1.5 0.1 0.5 0.4 0.7 0.2 0.2 0.6 0.2zm5.3 2v-8.8h2.3l0.2 0.9h0.2q0.4-0.5 1-0.7 0.6-0.3 1.3-0.3 1.3 0 2 0.8 0.8 0.8 0.8 2.6v5.5h-2.9v-5.3q0-0.6-0.2-0.8-0.3-0.3-0.7-0.3-0.3 0-0.7 0.1-0.3 0.2-0.5 0.4v5.9zm16.4-9.7l3.3-2.2h1.9v11.9h-3v-8.4l-2.2 1.4zm8.1 9.9q-0.6 0-1-0.2-0.4-0.3-0.6-0.7-0.3-0.4-0.3-0.9 0-0.8 0.5-1.3 0.5-0.5 1.4-0.5 0.5 0 1 0.2 0.4 0.3 0.6 0.7 0.2 0.4 0.2 0.9 0 0.5-0.2 0.9-0.2 0.4-0.7 0.7-0.4 0.2-0.9 0.2zm6.9-2.7h3.8v2.5h-7.6v-1.6l2.9-3.8q0.7-0.9 1-1.6 0.2-0.6 0.2-1.2 0-0.7-0.4-1-0.5-0.4-1.5-0.4-0.6 0-1.2 0.1-0.7 0.2-1.2 0.4v-2.5q0.5-0.1 1.3-0.3 0.8-0.1 1.5-0.1 2.2 0 3.3 0.9 1.1 0.8 1.1 2.7 0 0.9-0.3 1.8-0.4 0.9-1.2 1.9z"></path>
</svg><style>@media (prefers-color-scheme: light) { :root { filter: none; } }
@media (prefers-color-scheme: dark) { :root { filter: none; } }
</style></svg>